<svg xmlns="http://www.w3.org/2000/svg" width="1200" height="480" viewBox="0 0 1200 480" role="img" aria-label="Abstract hero illustration">
  <defs>
    <linearGradient id="bg" x1="0" y1="0" x2="1" y2="1">
      <stop offset="0%" stop-color="#ede9fe" />
      <stop offset="50%" stop-color="#dbeafe" />
      <stop offset="100%" stop-color="#cffafe" />
    </linearGradient>
    <linearGradient id="accent" x1="0" y1="0" x2="1" y2="1">
      <stop offset="0%" stop-color="#7c3aed" />
      <stop offset="100%" stop-color="#2563eb" />
    </linearGradient>
  </defs>

  <rect width="1200" height="480" rx="24" fill="url(#bg)" />

  <g opacity="0.18">
    <circle cx="190" cy="120" r="90" fill="#7c3aed" />
    <circle cx="1040" cy="380" r="120" fill="#2563eb" />
    <circle cx="980" cy="90" r="48" fill="#0ea5e9" />
  </g>

  <rect x="120" y="96" width="440" height="288" rx="16" fill="#ffffff" stroke="#cbd5e1" />
  <rect x="148" y="126" width="180" height="18" rx="9" fill="#e2e8f0" />
  <rect x="148" y="160" width="360" height="14" rx="7" fill="#e2e8f0" />
  <rect x="148" y="184" width="300" height="14" rx="7" fill="#e2e8f0" />
  <rect x="148" y="224" width="132" height="38" rx="10" fill="url(#accent)" />

  <rect x="600" y="72" width="480" height="336" rx="18" fill="#ffffff" stroke="#cbd5e1" />
  <rect x="632" y="108" width="160" height="16" rx="8" fill="#dbeafe" />
  <rect x="632" y="140" width="230" height="26" rx="8" fill="#f8fafc" stroke="#e2e8f0" />
  <rect x="632" y="176" width="416" height="26" rx="8" fill="#f8fafc" stroke="#e2e8f0" />
  <rect x="632" y="212" width="350" height="26" rx="8" fill="#f8fafc" stroke="#e2e8f0" />
  <rect x="632" y="258" width="200" height="14" rx="7" fill="#cbd5e1" />
  <rect x="632" y="282" width="240" height="14" rx="7" fill="#cbd5e1" />
  <rect x="632" y="316" width="146" height="38" rx="10" fill="url(#accent)" />

  <g opacity="0.4">
    <circle cx="540" cy="84" r="6" fill="#7c3aed" />
    <circle cx="564" cy="84" r="6" fill="#2563eb" />
    <circle cx="588" cy="84" r="6" fill="#0ea5e9" />
  </g>
</svg>
